<?xml version="1.0" encoding="utf-8"?>
<!-- Generator: Adobe Illustrator 25.2.3, SVG Export Plug-In . SVG Version: 6.00 Build 0)  -->
<svg version="1.1" id="Calque_1" xmlns="http://www.w3.org/2000/svg" xmlns:xlink="http://www.w3.org/1999/xlink" x="0px" y="0px"
	 viewBox="0 0 512 512" style="enable-background:new 0 0 512 512;" xml:space="preserve">
<style type="text/css">
	.st0{fill:#0F99D6;}
	.st1{fill-rule:evenodd;clip-rule:evenodd;fill:#C9C806;}
	.st2{fill:#EDD9B4;}
	.st3{fill:#DCC5A1;}
	.st4{fill-rule:evenodd;clip-rule:evenodd;fill:#BC9F82;}
	.st5{fill:#FFFFFF;}
	.st6{fill:#D53229;}
	.st7{fill:#CB3029;}
	.st8{fill:#A92723;}
	.st9{fill:#342215;}
	.st10{fill:#1D75BB;}
</style>
<g id="iconfinder-9-avatar-2754584_120518">
	<path id="Tracé_32" class="st0" d="M179.6,349.4l-0.2,0.2l40.6,62.9l27.5-25l0,0l8.6-7.8l0.4,0.4l35.7,32.4l40.6-62.9l-0.2-0.2
		c29.1,18.5,67,29,99.2,36.2c2.3,0.5,4.5,1.2,6.7,2c63-100.7,32.5-233.4-68.2-296.4S136.7,58.7,73.7,159.4
		C30,229.2,30,317.8,73.7,387.6c2.2-0.8,4.4-1.5,6.7-2C112.6,378.5,150.6,368.1,179.6,349.4z"/>
	<path id="Tracé_33" class="st1" d="M120.9,287.8c-17.6-180.4,32-262.7,135-262.7s158,93.3,132.9,262.7
		C311.7,332.9,187.4,325.4,120.9,287.8"/>
	<path id="Tracé_34" class="st2" d="M256,198.2v185.6c16-1.9,30.9-17.4,44-34.4V241.8C300,212.8,278,198.2,256,198.2z"/>
	<path id="Tracé_35" class="st3" d="M212.1,241.9v107.7c15,27.4,29.9,36.1,44,34.4V198.2C234.1,198.2,212.1,212.8,212.1,241.9z"/>
	<path id="Tracé_36" class="st4" d="M300,237.5v72.1c-16.6,12.9-32.7,20.3-43.9,20.3c-11.2,0-27.3-7.3-44-20.3v-72.1
		C212.1,179.4,300,179.4,300,237.5"/>
	<polygon id="Ellipse_3" class="st5" points="256,379.8 256,379.8 256,379.8 	"/>
	<g id="Groupe_5">
		<g id="Groupe_4">
			<path id="Tracé_37" class="st3" d="M255.7,44.3c-79.1,0-116.3,70.6-112.2,131.7c-4-3.3-9.4-4.3-14.4-2.7
				c-9.3,4-11.2,20.1-4.3,36c6.9,15.9,19.8,25.6,29,21.6c1.6-0.7,3-1.8,4.1-3.1c24.7,50.5,73.1,84,97.8,84l0,0V44.3z"/>
			<path id="Tracé_38" class="st2" d="M382.9,173.3c-4.5-1.9-9.9-0.6-15,3.1c4.3-61.3-32.9-132.1-112.2-132.1V312
				c24.7,0,73.3-33.7,98.1-84.5c1.2,1.5,2.7,2.7,4.5,3.5c9.3,4,22.2-5.8,29-21.6C394.1,193.4,392.2,177.3,382.9,173.3z"/>
		</g>
		<path id="Tracé_39" class="st1" d="M316.4,91.9c46.4,29.5,49,69.1,50.8,99.7C388,165.6,389.8,73.9,316.4,91.9"/>
		<path id="Tracé_40" class="st1" d="M197.5,91.9c-46.4,29.5-49,69.1-50.8,99.7C125.8,165.7,124,73.9,197.5,91.9"/>
		<path id="Tracé_41" class="st1" d="M138.4,119.3c4.1-131.9,233.7-119.5,234.9,0c-27,6-54.4,9.5-82,10.5
			c-2.5-15.7-6.2-31.2-11.1-46.4c-3.1,9.1-5.3,29-6.2,46.8c-17.4,0.4-34.9,0-51.8-0.7c-1-17.4-3.1-36.4-6.2-45.2
			c-4.7,14.5-8.4,29.3-10.8,44.3c-22.4-1.4-44.6-4.5-66.6-9.3"/>
	</g>
	<g id="Groupe_7">
		<g id="Groupe_6">
			<path id="Tracé_42" class="st6" d="M268.6,262.4c0,0,0.5,8-13.1,8c-4,0-13-1.7-13-7.8C251,264.8,260,264.7,268.6,262.4"/>
			<path id="Tracé_43" class="st7" d="M260.8,259.1c2.8,0.6,5.5,1.7,7.9,3.3c-8.5,2.3-17.5,2.4-26,0.2h-0.2
				c2.7-1.1,6.2-3.4,8.9-3.1c1.4,0,3.1,1.2,4.4,1.2c1.9,0,3.1-1.7,5.1-1.4"/>
			<path id="Tracé_44" class="st8" d="M238.1,261.5c11.1,4.5,23.5,4.5,34.5-0.2c0.1-0.1,0.1-0.2,0-0.3c0,0,0,0,0,0
				c-0.1-0.1-0.2-0.1-0.2,0C260.4,264.8,250.3,264.1,238.1,261.5L238.1,261.5"/>
		</g>
		<path id="Tracé_45" class="st9" d="M208.2,179.3c7.4-0.9,14.1,4.3,15,11.7c0.9,7.4-4.3,14.1-11.7,15c-7.4,0.9-14.1-4.3-15-11.6
			c0-0.6,0-1.1,0-1.7C196.2,185.8,201.3,179.8,208.2,179.3"/>
		<path id="Tracé_46" class="st9" d="M304,179.3c7.4-0.9,14.1,4.3,15.1,11.6c0.9,7.4-4.3,14.1-11.6,15.1
			c-7.4,0.9-14.1-4.3-15.1-11.6c0,0,0,0,0,0c0-0.6,0-1.1,0-1.7C291.9,185.7,297.2,179.7,304,179.3"/>
	</g>
	<path id="Tracé_47" class="st5" d="M256.4,380.2l-0.4-0.4l-8.6,7.8l8.6-7.8L256.4,380.2z"/>
	<path id="Tracé_48" class="st10" d="M247.4,488.3V387.5l-27.5,25l-40.6-62.9l0.2-0.2c-29.1,18.5-67,29-99.2,36.2
		c-2.3,0.5-4.5,1.2-6.7,2C111.4,447.8,176.5,485.5,247.4,488.3z"/>
	<path id="Tracé_49" class="st10" d="M332.5,349.4l0.2,0.2l-40.6,62.9l-35.7-32.4l8.2,7.4v100.8c71-2.8,136-40.5,173.8-100.7
		c-2.2-0.8-4.4-1.5-6.7-2C399.5,378.5,361.5,368.1,332.5,349.4z"/>
	<path id="Tracé_50" class="st5" d="M332.5,349.4L300,319.6l-44,60.1l0,0l-44-60.1l-32.5,29.8l-0.2,0.2l40.6,62.9l27.5-25v100.8
		c2.8,0,5.7,0.2,8.6,0.2l0,0c2.9,0,5.7,0,8.6-0.2V387.5l27.5,25l40.6-62.9L332.5,349.4z"/>
	<path id="Tracé_51" class="st5" d="M247.4,387.5"/>
</g>
</svg>
