<svg xmlns="http://www.w3.org/2000/svg" xmlns:xlink="http://www.w3.org/1999/xlink" width="1306.771" height="801.5" viewBox="0 0 1306.771 801.5">
  <defs>
    <linearGradient id="linear-gradient" x1="0.5" y1="1" x2="0.5" gradientUnits="objectBoundingBox">
      <stop offset="0" stop-color="#101023" stop-opacity="0.631"/>
      <stop offset="0.056" stop-color="#151526" stop-opacity="0.588"/>
      <stop offset="0.261" stop-color="#3C4280" stop-opacity="0.824"/>
      <stop offset="0.489" stop-color="#7883FF" stop-opacity="0.961"/>
      <stop offset="1" stop-color="#7883FF"/>
    </linearGradient>
  </defs>
  <path id="France" d="M755.268,861c-9.9-4.241,1.414-29.686,0-49.477-8.482-46.649-42.737-22.615-67.854-63.613-12.5-20.406-29.686-32.513-31.1-60.786,7.068-72.095-26.624-41.509-33.927-62.2-8.482-24.031,26.859-26.859-4.241-31.1-28.875-3.937-58.408-23.186-111.676-52.3-24.031-14.136-36.754-14.136-56.545-5.654-16.891,7.239-6.633-24.276-16.963-26.859-22.618-5.654-43.34-20.451-5.654-21.2,72.094-1.442-29.686-12.723,14.136-35.341,7.8-4.027-15.728-1.414-22.618-1.414-14.136,0-16.125-3.726-14.136-15.55,8.482-26.859,40.176-39.266,96.126-31.1,38.168,2.827,16.963-28.272,74.922-19.791,29.672,4.343,26.859,70.681,55.131,40.995,17.923-18.819,25.458-.613,39.581,0,97.54,4.241,62.2-8.482,60.786-22.618-1.548-15.472-4.241-36.754,0-56.545,2.827-19.791-15.55-29.686-19.791-38.168-5.9-11.808,1.414-25.445-1.414-29.686-19.367-29.05,4.241-18.377,26.859-12.723,14.136,2.827,20.717-14.16,31.1,1.414,5.654,8.482-5.654,21.2,4.241,33.927,7.092,9.118,8.482,14.136,38.168,15.55,31.1,0,44.945,20.359,76.335,9.9,38.168-12.723,6.607-20.818,26.859-52.3s92.756-32.984,124.4-69.267c15.083-17.3,14.892-55.356,12.723-79.163-2.383-26.135-2.827-45.236,48.063-55.131,7.993-1.554,47.075-10.526,50.89,2.827,2.827,9.9,1.414,36.754,25.445,43.822,12.723,2.827,19.791-19.791,33.927-7.068,8.482,9.9,1.414,31.1,19.791,36.754,12.723,2.827,26.859,4.241,28.272,22.618.766,9.966,24.031,5.654,29.686,5.654,7.068,0,16.963,1.414,19.791,12.723,1.71,6.845,1.414,19.791,0,26.859-1.144,5.715-4.241,14.136,14.136,14.136,12.723,1.414,29.686-1.414,35.341-15.55,9.9-26.859,24.031-16.963,16.963-1.414-4.241,14.136-.507,31.939,2.827,39.581,1.405,2.812,7.057-.392,14.136,1.414,7.158,1.825,12.436,12.509,18.377,15.55,5.655,2.827,19.791,9.9,24.031,19.791,4.791,11.177,22.618-1.414,32.513-1.414,18.377,1.414,24.031,18.377,40.995,9.9,15.55-5.654,38.168,1.414,42.409,21.2,2.827,11.309,9.9,8.482,16.964,18.377,14.136,14.136,15.55-9.9,26.859,2.827,14.136,9.9,22.618,1.414,38.167-1.414,8.482-2.827,25.445,18.377,49.477,15.55,26.859,2.827,46.649,9.9,14.136,48.063-19.791,19.791-15.55,55.131-26.859,74.922-9.423,16.49-1.414,45.236-5.655,59.372-1.414,12.723,4.241,43.822,4.241,43.822-21.2,35.34-32.7,9.406-55.131,18.377-14.136,5.654,4.241,24.031-15.55,46.649-15.813,18.072-39.581,39.581-40.052,52.765-.872,24.417-32.231,18.561-33.456,50.429-1.414,36.754-20.348,50.861-4.241,56.545,24.031,8.482,24.031-43.822,56.545-42.409s21.821,34.543,46.649,59.372c11.309,11.309-4.241,26.859-19.791,35.34C1580.821,872.305,765.163,869.478,755.268,861Z" transform="translate(-404.039 -66.396)" fill="url(#linear-gradient)" />
</svg>
