<svg id="mmi_svg" data-name="mmi svg" xmlns="http://www.w3.org/2000/svg" viewBox="0 0 412 475.74">
    <defs>
        <style>.cls-1{fill:#fff;}</style>
    </defs>
    <path class="cls-1"
          d="M347.79,149.94c-9.34-6-14.11,5.76-66.24,65.95-22.46-88.42-19.73-97.78-30.55-97.79-9.92,0-9.48,10-32.23,97.5-53.57-61.49-56.16-71.86-66.24-65.38-9.86,6.34-1.87,9.36,33.69,121.54-53.85-42.14-57.43-50.45-65.95-43.2-6.43,5.47-.77,11.14,33.79,89.66,25.3,57.48,25,64.42,34.47,64.42,10.08,0,8.73-8.74,23.52-68.45C219.75,283.1,227.7,253,227.7,253c15.07,17,17.44,21.24,22.3,21.31,6.64.1,8.51-4.75,22.91-21.6,0,0,7.07,26.94,15.55,61.06,14.69,59,14.55,68.83,24.1,68.72,8.74-.1,9-7.25,40.13-77.65,28.51-64.51,34.56-71.42,26.78-76.9-8.13-5.72-13.08,2.34-66,43.78C349.81,164.05,356.72,155.7,347.79,149.94ZM456,131.07V368.93L250,487.87,44,368.93V131.07L250,12.13Z"
          transform="translate(-44 -12.13)"/>
    <polygon class="cls-1" points="308.54 250.7 270.82 336.09 259.73 290.3 308.54 250.7"/>
    <polygon class="cls-1" points="277.01 184.17 251.38 259.05 242.45 223.92 277.01 184.17"/>
    <polygon class="cls-1" points="206.27 149.33 224.02 219.31 206.27 240.33 188.74 220.03 206.27 149.33"/>
    <polygon class="cls-1" points="135.02 183.74 170.16 224.35 160.51 261.07 135.02 183.74"/>
    <polygon class="cls-1" points="153.6 290.3 142.22 336.24 103.63 250.56 153.6 290.3"/>
</svg>